<mxfile host="app.diagrams.net" modified="2023-10-09T16:21:58.242Z" agent="Mozilla/5.0 (Macintosh; Intel Mac OS X 10.15; rv:109.0) Gecko/20100101 Firefox/117.0" etag="39w7VQrUJKRz0GKpAY6F" version="22.0.4" type="device">
  <diagram name="Page-1" id="y2TCeAq4V57O8H6PgP3X">
    <mxGraphModel dx="1200" dy="1072" grid="1" gridSize="10" guides="1" tooltips="1" connect="1" arrows="1" fold="1" page="1" pageScale="1" pageWidth="850" pageHeight="1100" math="0" shadow="0">
      <root>
        <mxCell id="0" />
        <mxCell id="1" parent="0" />
        <mxCell id="J9HWc-WsgfUzrN7wYgXZ-5" value="Kubernetes" style="rounded=0;whiteSpace=wrap;html=1;verticalAlign=top;" vertex="1" parent="1">
          <mxGeometry x="20" y="190" width="640" height="370" as="geometry" />
        </mxCell>
        <mxCell id="J9HWc-WsgfUzrN7wYgXZ-30" value="pfSense" style="rounded=0;whiteSpace=wrap;html=1;verticalAlign=top;" vertex="1" parent="1">
          <mxGeometry x="255" y="20" width="405" height="120" as="geometry" />
        </mxCell>
        <mxCell id="J9HWc-WsgfUzrN7wYgXZ-8" value="AdGuard Home" style="rounded=0;whiteSpace=wrap;html=1;" vertex="1" parent="1">
          <mxGeometry x="510" y="240" width="120" height="60" as="geometry" />
        </mxCell>
        <mxCell id="J9HWc-WsgfUzrN7wYgXZ-4" style="edgeStyle=orthogonalEdgeStyle;rounded=1;orthogonalLoop=1;jettySize=auto;html=1;exitX=0.5;exitY=0;exitDx=0;exitDy=0;entryX=0.25;entryY=1;entryDx=0;entryDy=0;fillColor=#dae8fc;strokeColor=#6c8ebf;" edge="1" parent="1" source="J9HWc-WsgfUzrN7wYgXZ-1" target="J9HWc-WsgfUzrN7wYgXZ-3">
          <mxGeometry relative="1" as="geometry" />
        </mxCell>
        <mxCell id="J9HWc-WsgfUzrN7wYgXZ-1" value="&lt;div&gt;CoreDNS&lt;/div&gt;" style="rounded=0;whiteSpace=wrap;html=1;" vertex="1" parent="1">
          <mxGeometry x="30" y="230" width="120" height="60" as="geometry" />
        </mxCell>
        <mxCell id="J9HWc-WsgfUzrN7wYgXZ-7" style="edgeStyle=orthogonalEdgeStyle;rounded=1;orthogonalLoop=1;jettySize=auto;html=1;exitX=0.5;exitY=0;exitDx=0;exitDy=0;entryX=0.75;entryY=1;entryDx=0;entryDy=0;fillColor=#dae8fc;strokeColor=#6c8ebf;" edge="1" parent="1" source="J9HWc-WsgfUzrN7wYgXZ-2" target="J9HWc-WsgfUzrN7wYgXZ-3">
          <mxGeometry relative="1" as="geometry" />
        </mxCell>
        <mxCell id="J9HWc-WsgfUzrN7wYgXZ-2" value="AdGuard Home StatefulSet" style="rounded=0;whiteSpace=wrap;html=1;" vertex="1" parent="1">
          <mxGeometry x="500" y="230" width="120" height="60" as="geometry" />
        </mxCell>
        <mxCell id="J9HWc-WsgfUzrN7wYgXZ-3" value="&lt;div&gt;BIND&lt;/div&gt;&lt;div&gt;@ 10.0.0.1&lt;/div&gt;" style="rounded=0;whiteSpace=wrap;html=1;" vertex="1" parent="1">
          <mxGeometry x="285" y="60" width="120" height="60" as="geometry" />
        </mxCell>
        <mxCell id="J9HWc-WsgfUzrN7wYgXZ-9" value="&lt;div&gt;LoadBalancer&lt;/div&gt;&lt;div&gt;@  10.0.6.1&lt;/div&gt;" style="rounded=0;whiteSpace=wrap;html=1;" vertex="1" parent="1">
          <mxGeometry x="500" y="414" width="120" height="60" as="geometry" />
        </mxCell>
        <mxCell id="J9HWc-WsgfUzrN7wYgXZ-14" style="edgeStyle=orthogonalEdgeStyle;rounded=0;orthogonalLoop=1;jettySize=auto;html=1;exitX=0;exitY=0.5;exitDx=0;exitDy=0;entryX=1;entryY=0.5;entryDx=0;entryDy=0;fillColor=#dae8fc;strokeColor=#6c8ebf;" edge="1" parent="1" source="J9HWc-WsgfUzrN7wYgXZ-11" target="J9HWc-WsgfUzrN7wYgXZ-12">
          <mxGeometry relative="1" as="geometry" />
        </mxCell>
        <mxCell id="J9HWc-WsgfUzrN7wYgXZ-11" value="&lt;div&gt;LoadBalancer&lt;br&gt;@ 10.0.6.10&lt;br&gt;&lt;/div&gt;" style="rounded=0;whiteSpace=wrap;html=1;" vertex="1" parent="1">
          <mxGeometry x="500" y="484" width="120" height="60" as="geometry" />
        </mxCell>
        <mxCell id="J9HWc-WsgfUzrN7wYgXZ-51" style="edgeStyle=orthogonalEdgeStyle;rounded=0;orthogonalLoop=1;jettySize=auto;html=1;exitX=0.5;exitY=0;exitDx=0;exitDy=0;entryX=0.5;entryY=1;entryDx=0;entryDy=0;fillColor=#dae8fc;strokeColor=#6c8ebf;" edge="1" parent="1" source="J9HWc-WsgfUzrN7wYgXZ-12" target="J9HWc-WsgfUzrN7wYgXZ-31">
          <mxGeometry relative="1" as="geometry" />
        </mxCell>
        <mxCell id="J9HWc-WsgfUzrN7wYgXZ-53" style="rounded=1;orthogonalLoop=1;jettySize=auto;html=1;exitX=0.25;exitY=0;exitDx=0;exitDy=0;entryX=0.5;entryY=1;entryDx=0;entryDy=0;dashed=1;edgeStyle=orthogonalEdgeStyle;" edge="1" parent="1" source="J9HWc-WsgfUzrN7wYgXZ-12" target="J9HWc-WsgfUzrN7wYgXZ-15">
          <mxGeometry relative="1" as="geometry">
            <Array as="points">
              <mxPoint x="380" y="430" />
              <mxPoint x="230" y="430" />
            </Array>
          </mxGeometry>
        </mxCell>
        <mxCell id="J9HWc-WsgfUzrN7wYgXZ-54" style="rounded=1;orthogonalLoop=1;jettySize=auto;html=1;exitX=0;exitY=0.5;exitDx=0;exitDy=0;entryX=0.5;entryY=1;entryDx=0;entryDy=0;edgeStyle=orthogonalEdgeStyle;fillColor=#dae8fc;strokeColor=#6c8ebf;" edge="1" parent="1" source="J9HWc-WsgfUzrN7wYgXZ-12" target="J9HWc-WsgfUzrN7wYgXZ-1">
          <mxGeometry relative="1" as="geometry">
            <Array as="points">
              <mxPoint x="200" y="514" />
              <mxPoint x="200" y="370" />
              <mxPoint x="90" y="370" />
            </Array>
          </mxGeometry>
        </mxCell>
        <mxCell id="J9HWc-WsgfUzrN7wYgXZ-12" value="Traefik Ingress" style="rounded=0;whiteSpace=wrap;html=1;" vertex="1" parent="1">
          <mxGeometry x="350" y="484" width="120" height="60" as="geometry" />
        </mxCell>
        <mxCell id="J9HWc-WsgfUzrN7wYgXZ-16" style="edgeStyle=orthogonalEdgeStyle;rounded=0;orthogonalLoop=1;jettySize=auto;html=1;exitX=1;exitY=0.25;exitDx=0;exitDy=0;entryX=0;entryY=0.25;entryDx=0;entryDy=0;fillColor=#dae8fc;strokeColor=#6c8ebf;" edge="1" parent="1" source="J9HWc-WsgfUzrN7wYgXZ-15" target="J9HWc-WsgfUzrN7wYgXZ-2">
          <mxGeometry relative="1" as="geometry" />
        </mxCell>
        <mxCell id="J9HWc-WsgfUzrN7wYgXZ-15" value="external-dns" style="rounded=0;whiteSpace=wrap;html=1;" vertex="1" parent="1">
          <mxGeometry x="170" y="230" width="120" height="60" as="geometry" />
        </mxCell>
        <mxCell id="J9HWc-WsgfUzrN7wYgXZ-26" style="edgeStyle=orthogonalEdgeStyle;orthogonalLoop=1;jettySize=auto;html=1;exitX=1;exitY=0.5;exitDx=0;exitDy=0;entryX=0.5;entryY=0;entryDx=0;entryDy=0;fillColor=#dae8fc;strokeColor=#6c8ebf;rounded=1;" edge="1" parent="1" source="J9HWc-WsgfUzrN7wYgXZ-25" target="J9HWc-WsgfUzrN7wYgXZ-27">
          <mxGeometry relative="1" as="geometry">
            <mxPoint x="910" y="340" as="targetPoint" />
          </mxGeometry>
        </mxCell>
        <mxCell id="J9HWc-WsgfUzrN7wYgXZ-35" value="&lt;div&gt;Set DNS:&lt;/div&gt;&lt;div&gt;10.0.6.1, 10.0.0.1&lt;/div&gt;" style="edgeLabel;html=1;align=center;verticalAlign=middle;resizable=0;points=[];" vertex="1" connectable="0" parent="J9HWc-WsgfUzrN7wYgXZ-26">
          <mxGeometry x="0.1042" y="-74" relative="1" as="geometry">
            <mxPoint x="74" y="133" as="offset" />
          </mxGeometry>
        </mxCell>
        <mxCell id="J9HWc-WsgfUzrN7wYgXZ-34" style="edgeStyle=orthogonalEdgeStyle;rounded=0;orthogonalLoop=1;jettySize=auto;html=1;exitX=0;exitY=0.5;exitDx=0;exitDy=0;entryX=1;entryY=0.5;entryDx=0;entryDy=0;dashed=1;" edge="1" parent="1" source="J9HWc-WsgfUzrN7wYgXZ-25" target="J9HWc-WsgfUzrN7wYgXZ-3">
          <mxGeometry relative="1" as="geometry" />
        </mxCell>
        <mxCell id="J9HWc-WsgfUzrN7wYgXZ-25" value="DHCP" style="rounded=0;whiteSpace=wrap;html=1;" vertex="1" parent="1">
          <mxGeometry x="510" y="60" width="120" height="60" as="geometry" />
        </mxCell>
        <mxCell id="J9HWc-WsgfUzrN7wYgXZ-57" style="edgeStyle=orthogonalEdgeStyle;rounded=1;orthogonalLoop=1;jettySize=auto;html=1;exitX=0;exitY=0.75;exitDx=0;exitDy=0;entryX=1;entryY=0.5;entryDx=0;entryDy=0;fillColor=#dae8fc;strokeColor=#6c8ebf;" edge="1" parent="1" source="J9HWc-WsgfUzrN7wYgXZ-27" target="J9HWc-WsgfUzrN7wYgXZ-11">
          <mxGeometry relative="1" as="geometry" />
        </mxCell>
        <mxCell id="J9HWc-WsgfUzrN7wYgXZ-60" value="DoH" style="edgeLabel;html=1;align=center;verticalAlign=middle;resizable=0;points=[];" vertex="1" connectable="0" parent="J9HWc-WsgfUzrN7wYgXZ-57">
          <mxGeometry x="-0.4286" relative="1" as="geometry">
            <mxPoint x="11" as="offset" />
          </mxGeometry>
        </mxCell>
        <mxCell id="J9HWc-WsgfUzrN7wYgXZ-58" style="edgeStyle=orthogonalEdgeStyle;rounded=1;orthogonalLoop=1;jettySize=auto;html=1;exitX=0;exitY=0.25;exitDx=0;exitDy=0;entryX=1;entryY=0.5;entryDx=0;entryDy=0;fillColor=#dae8fc;strokeColor=#6c8ebf;" edge="1" parent="1" source="J9HWc-WsgfUzrN7wYgXZ-27" target="J9HWc-WsgfUzrN7wYgXZ-9">
          <mxGeometry relative="1" as="geometry" />
        </mxCell>
        <mxCell id="J9HWc-WsgfUzrN7wYgXZ-59" value="DoT" style="edgeLabel;html=1;align=center;verticalAlign=middle;resizable=0;points=[];" vertex="1" connectable="0" parent="J9HWc-WsgfUzrN7wYgXZ-58">
          <mxGeometry x="-0.4265" y="1" relative="1" as="geometry">
            <mxPoint x="10" as="offset" />
          </mxGeometry>
        </mxCell>
        <mxCell id="J9HWc-WsgfUzrN7wYgXZ-27" value="Client" style="rounded=0;whiteSpace=wrap;html=1;" vertex="1" parent="1">
          <mxGeometry x="740" y="450" width="100" height="54" as="geometry" />
        </mxCell>
        <mxCell id="J9HWc-WsgfUzrN7wYgXZ-47" style="rounded=1;orthogonalLoop=1;jettySize=auto;html=1;exitX=0;exitY=0.5;exitDx=0;exitDy=0;entryX=0.75;entryY=1;entryDx=0;entryDy=0;dashed=1;edgeStyle=orthogonalEdgeStyle;" edge="1" parent="1" source="J9HWc-WsgfUzrN7wYgXZ-31" target="J9HWc-WsgfUzrN7wYgXZ-1">
          <mxGeometry relative="1" as="geometry" />
        </mxCell>
        <mxCell id="J9HWc-WsgfUzrN7wYgXZ-50" style="edgeStyle=orthogonalEdgeStyle;rounded=1;orthogonalLoop=1;jettySize=auto;html=1;exitX=0.5;exitY=0;exitDx=0;exitDy=0;entryX=0;entryY=0.75;entryDx=0;entryDy=0;fillColor=#dae8fc;strokeColor=#6c8ebf;" edge="1" parent="1" source="J9HWc-WsgfUzrN7wYgXZ-31" target="J9HWc-WsgfUzrN7wYgXZ-2">
          <mxGeometry relative="1" as="geometry" />
        </mxCell>
        <mxCell id="J9HWc-WsgfUzrN7wYgXZ-31" value="HTTP Service" style="rounded=0;whiteSpace=wrap;html=1;" vertex="1" parent="1">
          <mxGeometry x="350" y="320" width="120" height="60" as="geometry" />
        </mxCell>
        <mxCell id="J9HWc-WsgfUzrN7wYgXZ-42" style="edgeStyle=orthogonalEdgeStyle;rounded=0;orthogonalLoop=1;jettySize=auto;html=1;exitX=0.5;exitY=0;exitDx=0;exitDy=0;fillColor=#dae8fc;strokeColor=#6c8ebf;" edge="1" parent="1" source="J9HWc-WsgfUzrN7wYgXZ-9" target="J9HWc-WsgfUzrN7wYgXZ-2">
          <mxGeometry relative="1" as="geometry">
            <mxPoint x="560" y="330" as="sourcePoint" />
          </mxGeometry>
        </mxCell>
        <mxCell id="J9HWc-WsgfUzrN7wYgXZ-38" style="edgeStyle=orthogonalEdgeStyle;rounded=0;orthogonalLoop=1;jettySize=auto;html=1;exitX=1;exitY=0.75;exitDx=0;exitDy=0;entryX=0;entryY=0.75;entryDx=0;entryDy=0;fillColor=#d5e8d4;strokeColor=#82b366;" edge="1" parent="1" source="J9HWc-WsgfUzrN7wYgXZ-37" target="J9HWc-WsgfUzrN7wYgXZ-12">
          <mxGeometry relative="1" as="geometry" />
        </mxCell>
        <mxCell id="J9HWc-WsgfUzrN7wYgXZ-39" style="edgeStyle=orthogonalEdgeStyle;rounded=1;orthogonalLoop=1;jettySize=auto;html=1;exitX=1;exitY=0.25;exitDx=0;exitDy=0;entryX=0;entryY=0.5;entryDx=0;entryDy=0;fillColor=#d5e8d4;strokeColor=#82b366;" edge="1" parent="1" source="J9HWc-WsgfUzrN7wYgXZ-37" target="J9HWc-WsgfUzrN7wYgXZ-2">
          <mxGeometry relative="1" as="geometry" />
        </mxCell>
        <mxCell id="J9HWc-WsgfUzrN7wYgXZ-37" value="dns-cert secret" style="rounded=0;whiteSpace=wrap;html=1;" vertex="1" parent="1">
          <mxGeometry x="30" y="484" width="120" height="60" as="geometry" />
        </mxCell>
        <mxCell id="J9HWc-WsgfUzrN7wYgXZ-44" style="edgeStyle=orthogonalEdgeStyle;rounded=0;orthogonalLoop=1;jettySize=auto;html=1;exitX=0.5;exitY=1;exitDx=0;exitDy=0;entryX=0.5;entryY=0;entryDx=0;entryDy=0;fillColor=#d5e8d4;strokeColor=#82b366;" edge="1" parent="1" source="J9HWc-WsgfUzrN7wYgXZ-43" target="J9HWc-WsgfUzrN7wYgXZ-37">
          <mxGeometry relative="1" as="geometry" />
        </mxCell>
        <mxCell id="J9HWc-WsgfUzrN7wYgXZ-43" value="cert-manager" style="rounded=0;whiteSpace=wrap;html=1;" vertex="1" parent="1">
          <mxGeometry x="30" y="400" width="120" height="60" as="geometry" />
        </mxCell>
        <mxCell id="J9HWc-WsgfUzrN7wYgXZ-61" style="edgeStyle=orthogonalEdgeStyle;rounded=0;orthogonalLoop=1;jettySize=auto;html=1;entryX=0;entryY=0.75;entryDx=0;entryDy=0;fillColor=#d5e8d4;strokeColor=#82b366;" edge="1" parent="1">
          <mxGeometry relative="1" as="geometry">
            <mxPoint x="710" y="25" as="sourcePoint" />
            <mxPoint x="820" y="25" as="targetPoint" />
          </mxGeometry>
        </mxCell>
        <mxCell id="J9HWc-WsgfUzrN7wYgXZ-62" value="K8s Controlled" style="edgeLabel;html=1;align=center;verticalAlign=middle;resizable=0;points=[];" vertex="1" connectable="0" parent="J9HWc-WsgfUzrN7wYgXZ-61">
          <mxGeometry x="-0.2909" y="-5" relative="1" as="geometry">
            <mxPoint x="11" y="-5" as="offset" />
          </mxGeometry>
        </mxCell>
        <mxCell id="J9HWc-WsgfUzrN7wYgXZ-63" style="edgeStyle=orthogonalEdgeStyle;rounded=0;orthogonalLoop=1;jettySize=auto;html=1;entryX=0;entryY=0.75;entryDx=0;entryDy=0;fillColor=#dae8fc;strokeColor=#6c8ebf;" edge="1" parent="1">
          <mxGeometry relative="1" as="geometry">
            <mxPoint x="710" y="43" as="sourcePoint" />
            <mxPoint x="820" y="43" as="targetPoint" />
          </mxGeometry>
        </mxCell>
        <mxCell id="J9HWc-WsgfUzrN7wYgXZ-64" value="Network" style="edgeLabel;html=1;align=center;verticalAlign=middle;resizable=0;points=[];" vertex="1" connectable="0" parent="J9HWc-WsgfUzrN7wYgXZ-63">
          <mxGeometry x="-0.2909" y="-5" relative="1" as="geometry">
            <mxPoint x="11" y="-5" as="offset" />
          </mxGeometry>
        </mxCell>
        <mxCell id="J9HWc-WsgfUzrN7wYgXZ-65" style="edgeStyle=orthogonalEdgeStyle;rounded=0;orthogonalLoop=1;jettySize=auto;html=1;entryX=0;entryY=0.75;entryDx=0;entryDy=0;dashed=1;" edge="1" parent="1">
          <mxGeometry relative="1" as="geometry">
            <mxPoint x="710" y="61" as="sourcePoint" />
            <mxPoint x="820" y="61" as="targetPoint" />
          </mxGeometry>
        </mxCell>
        <mxCell id="J9HWc-WsgfUzrN7wYgXZ-66" value="Logical" style="edgeLabel;html=1;align=center;verticalAlign=middle;resizable=0;points=[];" vertex="1" connectable="0" parent="J9HWc-WsgfUzrN7wYgXZ-65">
          <mxGeometry x="-0.2909" y="-5" relative="1" as="geometry">
            <mxPoint x="11" y="-5" as="offset" />
          </mxGeometry>
        </mxCell>
        <mxCell id="J9HWc-WsgfUzrN7wYgXZ-67" value="Highly Available DNS on K8s" style="text;html=1;strokeColor=none;fillColor=none;align=center;verticalAlign=middle;whiteSpace=wrap;rounded=0;fontSize=23;" vertex="1" parent="1">
          <mxGeometry x="20" y="20" width="190" height="110" as="geometry" />
        </mxCell>
        <mxCell id="J9HWc-WsgfUzrN7wYgXZ-68" value="(with AdGuard Home)" style="text;html=1;strokeColor=none;fillColor=none;align=center;verticalAlign=middle;whiteSpace=wrap;rounded=0;" vertex="1" parent="1">
          <mxGeometry x="20" y="100" width="190" height="30" as="geometry" />
        </mxCell>
      </root>
    </mxGraphModel>
  </diagram>
</mxfile>
